<svg xmlns="http://www.w3.org/2000/svg" viewBox="0 0 100 100"><defs><style>.cls-1{fill:#fff;}.cls-2{fill:#1a3865;}</style></defs><g id="Layer_2" data-name="Layer 2"><g id="test"><g id="BrainStorming_Icon_Group" data-name="BrainStorming Icon Group"><circle id="bg" class="cls-1" cx="49.1" cy="50" r="47.03"/><path id="Circle" class="cls-2" d="M50,100a50,50,0,1,1,50-50A50.06,50.06,0,0,1,50,100ZM50,3.15A46.85,46.85,0,1,0,96.85,50,46.91,46.91,0,0,0,50,3.15Z"/><path id="Brain" class="cls-2" d="M83.63,43.32a7.65,7.65,0,0,0-7.35-9.87c-.15,0-.27,0-.41,0a8.8,8.8,0,0,0-8.58-6.93,8.55,8.55,0,0,0-3.13.61A7.85,7.85,0,0,0,50,25.2a7.86,7.86,0,0,0-14.17,2,8.46,8.46,0,0,0-3.12-.61,8.78,8.78,0,0,0-8.58,6.93c-.14,0-.26,0-.41,0a7.65,7.65,0,0,0-7.35,9.87,8.59,8.59,0,0,0,3,16.64H39.48a1.26,1.26,0,1,0,0-2.51H19.39a6.09,6.09,0,1,1,6.09-6.09,1.26,1.26,0,1,0,2.52,0,8.61,8.61,0,0,0-8.61-8.6l-.53,0A5.1,5.1,0,0,1,23.72,36H24a8.91,8.91,0,0,0,8.75,8.13,1.11,1.11,0,0,0,.25,0,6.47,6.47,0,0,1,5.46,3.85,1.17,1.17,0,0,0,1.09.71,1.09,1.09,0,0,0,.46-.1A1.18,1.18,0,0,0,40.59,47a8.86,8.86,0,0,0-7.35-5.25,1.19,1.19,0,0,0-.53-.13,6.35,6.35,0,0,1-6.26-6.26,6.27,6.27,0,0,1,6.26-6.26,5.87,5.87,0,0,1,2.78.69,7.9,7.9,0,0,0,7.87,7.59,1.26,1.26,0,0,0,0-2.52,5.38,5.38,0,1,1,5.38-5.38,1.26,1.26,0,0,0,2.52,0,5.38,5.38,0,1,1,5.38,5.38,1.26,1.26,0,0,0,0,2.52,7.9,7.9,0,0,0,7.87-7.59,6,6,0,0,1,2.78-.69,6.27,6.27,0,0,1,6.26,6.26,6.35,6.35,0,0,1-6.26,6.26h-.07a8.94,8.94,0,0,0-7.88,5.34A1.26,1.26,0,0,0,60,48.6a1.31,1.31,0,0,0,.5.1,1.26,1.26,0,0,0,1.16-.76,6.38,6.38,0,0,1,5.76-3.83h0A8.89,8.89,0,0,0,76,36h.25a5.07,5.07,0,0,1,4.85,6.82c-.17,0-.35,0-.53,0a8.61,8.61,0,0,0-8.6,8.6,1.26,1.26,0,1,0,2.52,0,6.09,6.09,0,1,1,6.08,6.09H59.65a1.26,1.26,0,1,0,0,2.51H80.6a8.59,8.59,0,0,0,3-16.64Z"/><path id="Flash" class="cls-2" d="M61.48,62.3A2,2,0,0,0,59.57,61H55.13l1.93-4.65a2,2,0,0,0-1.84-2.94H45.83a2.07,2.07,0,0,0-1.9,1.28l-5.4,13.41a2,2,0,0,0,1.9,2.82h3.23L41.24,77A2,2,0,0,0,42,79.45a2,2,0,0,0,2.53-.16L60.93,64.56A2.07,2.07,0,0,0,61.48,62.3ZM43.15,77.77l3.52-8.91H40.43l5.4-13.41h9.39L52.05,63h7.52Z"/></g></g></g></svg>