<svg xmlns="http://www.w3.org/2000/svg" viewBox="0 0 100 100"><defs><style>.cls-1{fill:#fff;}.cls-2{fill:#9daaba;}.cls-3{fill:#1a3865;}</style></defs><g id="Layer_2" data-name="Layer 2"><g id="test"><circle id="bg" class="cls-1" cx="50.64" cy="50" r="47.03"/><polygon id="Graph" class="cls-2" points="49.98 29.24 74.44 24.89 98.42 49.96 64.87 64.47 50.03 98.42 35.52 64.87 14.95 50.03 15.3 16.22 49.98 29.24"/><g id="Circles_Group" data-name="Circles Group"><path id="Circle" class="cls-3" d="M50,85.64A35.64,35.64,0,1,1,75.22,75.18,35.69,35.69,0,0,1,50,85.64Zm0-70.1a34.46,34.46,0,1,0,0,68.91V85l0-.59A34.47,34.47,0,0,0,84.46,50,34.52,34.52,0,0,0,50,15.54Z"/><path id="Circle-2" data-name="Circle" class="cls-3" d="M50,71.35h0A21.35,21.35,0,1,1,71.35,50,21.38,21.38,0,0,1,50,71.35Zm0-41.52a20.17,20.17,0,1,0,0,40.34v.59l0-.59a20.17,20.17,0,0,0,0-40.34Z"/><path id="Circle-3" data-name="Circle" class="cls-3" d="M50,59.52h0A9.52,9.52,0,1,1,59.52,50,9.53,9.53,0,0,1,50,59.52Zm0-17.86A8.35,8.35,0,0,0,41.66,50,8.36,8.36,0,0,0,50,58.34v0a8.34,8.34,0,0,0,0-16.68Z"/><path id="Circle-4" data-name="Circle" class="cls-3" d="M50,100A50,50,0,1,1,85.38,85.33,50.07,50.07,0,0,1,50,100ZM50,3.15a46.85,46.85,0,1,0,0,93.7v1.58l0-1.58a46.85,46.85,0,0,0,0-93.7Z"/></g><g id="Doted_Lines" data-name="Doted Lines"><path id="Line" class="cls-3" d="M2.4,50.63a.6.6,0,0,1,0-1.19H6.93a.6.6,0,0,1,.6.59.59.59,0,0,1-.6.59Zm9.07,0a.59.59,0,0,1-.59-.59.58.58,0,0,1,.59-.59H16a.59.59,0,0,1,.59.59.58.58,0,0,1-.59.59Zm9.06,0a.59.59,0,0,1,0-1.18h4.54a.59.59,0,0,1,.59.59.6.6,0,0,1-.59.59Zm9.07,0A.58.58,0,0,1,29,50a.59.59,0,0,1,.59-.6h4.53a.59.59,0,0,1,0,1.18Zm9.07,0a.59.59,0,0,1-.59-.59.58.58,0,0,1,.59-.59H43.2a.59.59,0,0,1,.59.59.58.58,0,0,1-.59.59Zm9.06,0a.59.59,0,0,1,0-1.18h4.53a.59.59,0,0,1,.6.59.6.6,0,0,1-.6.59Zm9.07,0a.58.58,0,0,1-.59-.59.59.59,0,0,1,.59-.59h4.53a.59.59,0,0,1,0,1.18Zm9.06,0a.6.6,0,0,1-.59-.59.59.59,0,0,1,.59-.59H70.4A.6.6,0,0,1,71,50a.59.59,0,0,1-.59.59Zm9.07,0a.59.59,0,0,1,0-1.18h4.53a.58.58,0,0,1,.59.59.59.59,0,0,1-.59.59Zm9.07,0a.58.58,0,0,1-.59-.59.59.59,0,0,1,.59-.59h4.53a.59.59,0,1,1,0,1.18Zm9.06,0a.6.6,0,0,1-.59-.59.59.59,0,0,1,.59-.59H97.6a.6.6,0,0,1,.59.59.59.59,0,0,1-.59.59Z"/><path id="Line-2" data-name="Line" class="cls-3" d="M50,98.19a.6.6,0,0,1-.6-.59V93.06a.6.6,0,0,1,.59-.59h0a.59.59,0,0,1,.59.59V97.6a.6.6,0,0,1-.59.59Zm0-9.07a.58.58,0,0,1-.59-.59V84a.59.59,0,0,1,.59-.59h0a.58.58,0,0,1,.59.59v4.53a.59.59,0,0,1-.59.59Zm0-9.06a.6.6,0,0,1-.59-.59V74.93a.59.59,0,0,1,.59-.59h0a.6.6,0,0,1,.59.59v4.53a.6.6,0,0,1-.59.6ZM50,71a.6.6,0,0,1-.59-.59V65.87a.6.6,0,0,1,.59-.6h0a.59.59,0,0,1,.59.59V70.4A.6.6,0,0,1,50,71Zm0-9.07a.58.58,0,0,1-.59-.59V56.8a.59.59,0,0,1,.59-.59h0a.58.58,0,0,1,.59.59v4.53a.59.59,0,0,1-.59.59Zm0-9.06a.59.59,0,0,1-.59-.59V47.73a.59.59,0,0,1,.59-.59h0a.6.6,0,0,1,.59.59v4.54a.59.59,0,0,1-.59.59Zm0-9.07a.59.59,0,0,1-.59-.59V38.67a.58.58,0,0,1,.59-.59h0a.58.58,0,0,1,.59.59V43.2a.58.58,0,0,1-.59.59Zm0-9.07a.58.58,0,0,1-.59-.59V29.6A.59.59,0,0,1,50,29h0a.58.58,0,0,1,.59.59v4.53a.59.59,0,0,1-.59.59Zm0-9.06a.59.59,0,0,1-.59-.59V20.54a.6.6,0,0,1,.59-.6h0a.6.6,0,0,1,.59.59v4.54a.59.59,0,0,1-.59.59Zm0-9.07a.59.59,0,0,1-.59-.59V11.47a.58.58,0,0,1,.59-.59h0a.58.58,0,0,1,.59.59V16a.58.58,0,0,1-.59.59Zm0-9.06a.59.59,0,0,1-.59-.59V2.4A.6.6,0,0,1,50,1.81h0a.59.59,0,0,1,.59.59V6.94a.6.6,0,0,1-.59.59Z"/></g></g></g></svg>