<svg xmlns="http://www.w3.org/2000/svg" width="100" height="100" viewBox="0 0 100 100"><path d="M49.9985,100A50,50,0,1,1,100,49.9976,50.05713,50.05713,0,0,1,49.9985,100Zm0-96.8506A46.85085,46.85085,0,1,0,96.8501,49.9976,46.90145,46.90145,0,0,0,49.9985,3.1494Z" fill="#1a3965"/><path d="M83.6304,43.3233a7.64582,7.64582,0,0,0-7.3531-9.8697c-.1509,0-.2719.0152-.4092.0215a8.79084,8.79084,0,0,0-8.5791-6.9277,8.40172,8.40172,0,0,0-3.1269.6157,7.8533,7.8533,0,0,0-14.1636-1.9639A7.854,7.854,0,0,0,35.834,27.1631a8.39488,8.39488,0,0,0-3.1245-.6157,8.79306,8.79306,0,0,0-8.5811,6.9277c-.1357-.0063-.2573-.0215-.4072-.0215a7.64843,7.64843,0,0,0-7.355,9.8697,8.59485,8.59485,0,0,0,3.0283,16.6416H39.477a1.2593,1.2593,0,1,0,0-2.5186H19.3945a6.08205,6.08205,0,1,1,6.0825-6.083,1.26025,1.26025,0,0,0,2.5205,0,8.61178,8.61178,0,0,0-8.603-8.6011c-.1792,0-.3545.0152-.5312.0264a5.07791,5.07791,0,0,1,4.8579-6.8159c.0937,0,.1592.0088.2412.0112a8.90688,8.90688,0,0,0,8.7471,8.125,1.16893,1.16893,0,0,0,.248-.0498,6.47082,6.47082,0,0,1,5.4634,3.8511,1.1801,1.1801,0,0,0,1.0845.7114,1.16363,1.16363,0,0,0,.4687-.0981,1.17991,1.17991,0,0,0,.6138-1.5533,8.86424,8.86424,0,0,0-7.3433-5.2519,1.24246,1.24246,0,0,0-.5351-.1289,6.34567,6.34567,0,0,1-6.2613-6.2613,6.2693,6.2693,0,0,1,6.2613-6.2626,5.88258,5.88258,0,0,1,2.7797.6977,7.89386,7.89386,0,0,0,7.8697,7.5825,1.25925,1.25925,0,1,0,0-2.5185,5.38085,5.38085,0,1,1,5.3789-5.3809,1.2605,1.2605,0,0,0,2.521,0,5.3801,5.3801,0,1,1,5.3803,5.3809,1.25925,1.25925,0,1,0,0,2.5185,7.89194,7.89194,0,0,0,7.8667-7.581,5.88928,5.88928,0,0,1,2.7832-.6992,6.26823,6.26823,0,0,1,6.2593,6.2626,6.34427,6.34427,0,0,1-6.2593,6.2613c-.0258,0-.0468.0122-.0722.0136a8.92914,8.92914,0,0,0-7.8784,5.337,1.25945,1.25945,0,1,0,2.3115,1.0009,6.37747,6.37747,0,0,1,5.7554-3.832c.0146,0,.0258-.0083.0405-.0083a8.90432,8.90432,0,0,0,8.5884-8.1167c.082-.0024.1489-.0112.2431-.0112a5.07694,5.07694,0,0,1,4.857,6.8159c-.1768-.0112-.3521-.0264-.5313-.0264a8.61167,8.61167,0,0,0-8.6025,8.6011,1.26075,1.26075,0,0,0,2.5215,0,6.082,6.082,0,1,1,6.081,6.083H59.6509a1.2593,1.2593,0,1,0,0,2.5186H80.603a8.59454,8.59454,0,0,0,3.0274-16.6416Z" fill="#1a3965"/><path d="M61.478,62.3023a2.04623,2.04623,0,0,0-1.9111-1.315H55.1255l1.9365-4.6465a2.04562,2.04562,0,0,0-1.8374-2.9423H45.8325a2.04908,2.04908,0,0,0-1.8994,1.2822L38.5312,68.0943a2.04907,2.04907,0,0,0,1.8999,2.8129h3.2281l-2.418,6.108a2.048,2.048,0,0,0,3.271,2.2783L60.9341,64.5591A2.048,2.048,0,0,0,61.478,62.3023ZM43.145,77.7696l3.5264-8.9102H40.4311l5.4014-13.4131h9.3848l-3.1631,7.5889h7.5127Z" fill="#1a3965"/></svg>