<svg xmlns="http://www.w3.org/2000/svg" width="100" height="99.9991" viewBox="0 0 100 99.9991"><path d="M49.9981,0A49.99955,49.99955,0,1,0,100,49.9991,50.05577,50.05577,0,0,0,49.9981,0ZM95.8716,59.5376a46.63831,46.63831,0,0,1-7.7178,17.6006c.7168-6.6777,2.9224-11.9321,5.6182-17.6006ZM83.585,57.9629v-4.039H96.6738q-.17055,2.0448-.5141,4.039ZM6.3257,59.5376c2.7236,5.7237,4.9765,11.0367,5.6767,17.8189a46.63083,46.63083,0,0,1-7.874-17.8189ZM3.8413,57.9629q-.34275-1.9944-.5141-4.039H16.5503v4.039Zm9.7041-5.6142h-1.706c8.6684-11.7793,12.8398-25.0694,13.0537-41.8731a46.63471,46.63471,0,0,1,11.3086-5.25C35.4731,24.2207,24.1646,42.7632,13.5454,52.3487Zm2.6514,7.1889A55.62155,55.62155,0,0,1,26.6992,90.6182a46.99672,46.99672,0,0,1-6.2895-4.3281c-.1563-9.9815-2.0293-17.2022-7.0576-26.7525Zm.7099-7.1523a1.409,1.409,0,0,0-.1806-.0366h-.6699c10.58-10.2344,21.3715-28.7295,21.8964-47.6211A46.65866,46.65866,0,0,1,49.0952,3.1734C48.2964,23.9053,32.1323,42.083,16.9067,52.3853ZM31.9756,42.0108v2.0835a5.05684,5.05684,0,0,1-7.2227,4.5703A90.85816,90.85816,0,0,0,31.9756,42.0108Zm1.4966-1.5752A76.049,76.049,0,0,0,43.583,26.8662V44.0943a5.0554,5.0554,0,1,1-10.1108,0ZM45.0796,24.0992a52.99921,52.99921,0,0,0,4.9878-14.208,53.08023,53.08023,0,0,0,5.1235,14.4711v19.732a5.05565,5.05565,0,1,1-10.1113,0ZM56.687,27.0928A76.315,76.315,0,0,0,66.7983,40.5806v3.5137a5.05565,5.05565,0,1,1-10.1113,0ZM68.2944,42.1485a91.15784,91.15784,0,0,0,7.1353,6.5537,5.05172,5.05172,0,0,1-7.1353-4.6079ZM51.0396,3.1768A46.67037,46.67037,0,0,1,62.1831,4.7676c.5361,18.8931,11.2671,37.3618,21.8418,47.5811h-.6152a1.40831,1.40831,0,0,0-.1817.0366C68.0039,42.0845,51.8398,23.9087,51.0396,3.1768ZM86.5327,52.3487l-.0068-.0088C75.9097,42.7647,64.6743,24.2559,63.9351,5.2671a46.61939,46.61939,0,0,1,11.3076,5.2974c.2221,16.7705,4.2993,30.0195,12.959,41.7842Zm-2.6055,7.1889h2.8716c-5.021,9.5293-6.9018,16.711-7.0698,26.6431a47.18021,47.18021,0,0,1-6.2881,4.3569A55.626,55.626,0,0,1,83.9272,59.5376ZM96.791,52.3487H94.6753c-5.1489-10.3394-6.0913-14.2403-6.207-29.045a46.57245,46.57245,0,0,1,8.3823,26.6954Q96.8506,51.1811,96.791,52.3487ZM86.7231,20.96c.0425,16.7148.8057,20.8037,6.0215,31.3887H90.3511C81.6021,40.9126,77.398,28.0542,76.9937,11.7456A47.17314,47.17314,0,0,1,86.7231,20.96Zm-63.581-9.312c-.4004,16.3462-4.6992,29.248-13.4512,40.7007H7.3369c5.2173-10.5874,6.0327-14.7232,6.0747-31.5601A47.18656,47.18656,0,0,1,23.1421,11.648ZM11.668,23.1119c-.1177,14.9501-1.1104,18.8896-6.2622,29.2368H3.209c-.0376-.7793-.0586-1.5616-.0586-2.3496A46.58065,46.58065,0,0,1,11.668,23.1119Zm2.2441,56.7294c-.333-8.0473-2.6963-13.9887-5.6733-20.3037h3.1694c5.0186,9.3286,6.938,15.9815,7.2476,25.2495A47.36937,47.36937,0,0,1,13.9121,79.8413ZM28.4473,91.5772A57.26805,57.26805,0,0,0,17.8628,58.9087a1.36742,1.36742,0,0,0,.2622-.7705V53.75c0-.0317-.0151-.0566-.0171-.0869,1.7979-1.2241,3.6065-2.5552,5.4024-3.9873a6.48689,6.48689,0,0,0,9.2133-2.6045,6.49709,6.49709,0,0,0,11.6075,0,6.49742,6.49742,0,0,0,11.6079,0,6.497,6.497,0,0,0,11.6074,0,6.4835,6.4835,0,0,0,9.1367,2.6494c1.7769,1.4151,3.5659,2.7295,5.3447,3.9414-.0014.0313-.0175.0562-.0175.0879v4.3882a1.368,1.368,0,0,0,.2573.7622A57.27664,57.27664,0,0,0,71.688,91.5069a46.69278,46.69278,0,0,1-43.2407.0703Zm53.0351-6.9116c.3238-9.209,2.2525-15.8243,7.2613-25.128h3.1167c-2.9576,6.2759-5.2784,12.168-5.6324,20.1319A47.2537,47.2537,0,0,1,81.4824,84.6656Z" fill="#1a3965"/></svg>