<svg xmlns="http://www.w3.org/2000/svg" width="100.001" height="100" viewBox="0 0 100.001 100"><path d="M49.998,100a50,50,0,1,1,50.003-50.0024A50.05735,50.05735,0,0,1,49.998,100Zm0-96.8505A46.8503,46.8503,0,1,0,96.8516,49.9976,46.9009,46.9009,0,0,0,49.998,3.1495Z" fill="#1a3965"/><path d="M88.168,23.7456a1.25965,1.25965,0,0,0-1.0938-.8554l-7.1592-.5791.3389-.3384a1.57462,1.57462,0,1,0-2.2266-2.2271l-.1699.1695-.1738-6.6856a1.26,1.26,0,0,0-2.2012-.8042l-6.1279,6.8985A36.55349,36.55349,0,1,0,80.9639,31.1495l6.8447-6.0611A1.26227,1.26227,0,0,0,88.168,23.7456ZM75.4004,22.3721l-8.3477,8.3472-.3222-4.6475,8.5161-9.5869Zm8.3852,27.6314A33.9051,33.9051,0,1,1,67.6494,21.2432l-3.1558,3.5513a1.26787,1.26787,0,0,0-.3149.9248l.5127,7.3613-.2959.2959a22.108,22.108,0,1,0,2.2261,2.2275l.2563-.2553,7.7188.8823c.0468.0034.0947.0073.1426.0073a1.25539,1.25539,0,0,0,.8349-.3169l3.4824-3.083A33.50247,33.50247,0,0,1,83.7856,50.0035ZM57.667,50a7.69911,7.69911,0,1,1-3.4824-6.4116l-5.2979,5.2988a1.57462,1.57462,0,0,0,2.2266,2.2271l5.2969-5.2974A7.61213,7.61213,0,0,1,57.667,50Zm-1.6738-8.2192a10.22984,10.22984,0,1,0,2.2255,2.2266l6.6221-6.6221a19.54478,19.54478,0,1,1-2.2265-2.2271Zm18.331-8.1177-5.1699-.5913,8.4219-8.4223,6.3466.5136Z" fill="#1a3965"/></svg>