<svg xmlns="http://www.w3.org/2000/svg" width="99.9956" height="100" viewBox="0 0 99.9956 100"><path d="M49.9956,0a50,50,0,1,0,50,49.999A50.05457,50.05457,0,0,0,49.9956,0ZM19.3286,85.3701V26.9414H80.6714V85.3662a46.70832,46.70832,0,0,1-61.3428.0039Zm64.2866-2.7886V25.4702a1.47479,1.47479,0,0,0-1.4726-1.4736H17.8545a1.47381,1.47381,0,0,0-1.4707,1.4736V82.584a46.84844,46.84844,0,1,1,67.2314-.0025Z" fill="#1a3965"/><path d="M73.2764,87.8472H58.6328a.6304.6304,0,0,1,0-1.2608H73.2764a.6304.6304,0,0,1,0,1.2608Z" fill="#1a3965"/><path d="M56.4854,87.2168a1.56275,1.56275,0,1,1-1.5625-1.5625A1.56247,1.56247,0,0,1,56.4854,87.2168Z" fill="#1a3965"/><path d="M73.2764,76.9487H58.6328a.6301.6301,0,0,1,0-1.2602H73.2764a.6301.6301,0,0,1,0,1.2602Z" fill="#1a3965"/><path d="M56.4854,76.3184a1.56275,1.56275,0,1,1-1.5625-1.5625A1.5619,1.5619,0,0,1,56.4854,76.3184Z" fill="#1a3965"/><path d="M73.2764,82.3975H58.6328a.6299.6299,0,1,1,0-1.2598H73.2764a.6299.6299,0,0,1,0,1.2598Z" fill="#1a3965"/><path d="M56.4854,81.7681a1.56275,1.56275,0,1,1-1.5625-1.5625A1.56247,1.56247,0,0,1,56.4854,81.7681Z" fill="#1a3965"/><path d="M66.1924,69.8022H54.2534a1.00485,1.00485,0,1,1,0-2.0097h11.939a1.00485,1.00485,0,0,1,0,2.0097Z" fill="#1a3965"/><path d="M72.7744,65.6885H54.2534a1.00465,1.00465,0,1,1,0-2.0093h18.521a1.00465,1.00465,0,0,1,0,2.0093Z" fill="#1a3965"/><path d="M46.4722,87.8472H27.0186a.6299.6299,0,0,1,0-1.2598H46.4722a.6299.6299,0,0,1,0,1.2598Z" fill="#1a3965"/><path d="M46.4712,82.3975H27.0186a.6299.6299,0,1,1,0-1.2598H46.4712a.6299.6299,0,0,1,0,1.2598Z" fill="#1a3965"/><path d="M46.4712,76.9487H27.0186a.6301.6301,0,0,1,0-1.2602H46.4712a.6301.6301,0,0,1,0,1.2602Z" fill="#1a3965"/><path d="M40.8843,69.5049a.6507.6507,0,0,1-.2363-.0459.63.63,0,0,1-.3472-.8208,3.82251,3.82251,0,0,0,.2759-1.2925.62984.62984,0,1,1,1.2588.0469,5.09723,5.09723,0,0,1-.3667,1.7192A.63181.63181,0,0,1,40.8843,69.5049Z" fill="#1a3965"/><path d="M40.6123,65.6001a.629.629,0,0,1-.5459-.314,3.85558,3.85558,0,0,0-3.3237-1.9175,3.78713,3.78713,0,0,0-2.416.8599.63.63,0,1,1-.7969-.9761,5.09349,5.09349,0,0,1,7.627,1.4019.63025.63025,0,0,1-.2291.8608A.61482.61482,0,0,1,40.6123,65.6001Z" fill="#1a3965"/><path d="M32.2803,67.835a.63031.63031,0,0,1-.6299-.6304,5.05881,5.05881,0,0,1,.333-1.8159.6299.6299,0,0,1,1.1768.4497,3.807,3.807,0,0,0-.25,1.3662A.63037.63037,0,0,1,32.2803,67.835Z" fill="#1a3965"/><path d="M36.7437,72.2969a5.10174,5.10174,0,0,1-4.4419-2.6001.63.63,0,1,1,1.0981-.6177,3.8406,3.8406,0,0,0,3.3438,1.9575,3.78466,3.78466,0,0,0,2.3515-.8047.63018.63018,0,0,1,.7735.9951A5.04145,5.04145,0,0,1,36.7437,72.2969Z" fill="#1a3965"/><path d="M78.0947,58.8721H21.9033a.78735.78735,0,0,1,0-1.5747H78.0947a.78735.78735,0,0,1,0,1.5747Z" fill="#1a3965"/><path d="M63.5337,37.6606a.67712.67712,0,0,0-.9438-.2109L50.3594,45.2324l-8.4238-5.4775a.67423.67423,0,0,0-.9419.1968.684.684,0,0,0,.1967.9409l7.9082,5.1426L36.6699,53.9448a.67915.67915,0,0,0-.2026.9448.68685.68685,0,0,0,.5713.3086.61731.61731,0,0,0,.3667-.1118l12.9433-8.2387,9.9766,6.4892a.6459.6459,0,0,0,.3731.1128.68306.68306,0,0,0,.3691-1.2544l-9.457-6.1499,11.7119-7.4536A.67079.67079,0,0,0,63.5337,37.6606Z" fill="#1a3965"/><path d="M78.0947,35.144H21.9033a.78735.78735,0,0,1,0-1.5747H78.0947a.78735.78735,0,0,1,0,1.5747Z" fill="#1a3965"/><path d="M26.1777,30.7725a1.3374,1.3374,0,1,1-1.3369-1.3374A1.3362,1.3362,0,0,1,26.1777,30.7725Z" fill="#1a3965"/><path d="M30.0586,30.7725a1.33765,1.33765,0,1,1-1.3379-1.3374A1.33769,1.33769,0,0,1,30.0586,30.7725Z" fill="#1a3965"/><path d="M33.9365,30.7725a1.3369,1.3369,0,1,1-1.3359-1.3374A1.33631,1.33631,0,0,1,33.9365,30.7725Z" fill="#1a3965"/></svg>