<svg xmlns="http://www.w3.org/2000/svg" width="100" height="99.999" viewBox="0 0 100 99.999"><path d="M49.9995,99.999A49.9995,49.9995,0,1,1,100,49.999,50.05561,50.05561,0,0,1,49.9995,99.999Zm0-96.8496A46.8496,46.8496,0,1,0,96.8496,49.999,46.90228,46.90228,0,0,0,49.9995,3.1494Z" fill="#1a3965"/><path d="M54.4453,79.1137h-9.25a1.25975,1.25975,0,1,1,0-2.5195h9.25a1.25975,1.25975,0,0,1,0,2.5195Z" fill="#1a3965"/><path d="M49.8164,68.6421A35.40574,35.40574,0,0,1,26.876,60.1997a1.41753,1.41753,0,0,1,1.8384-2.1582,32.54807,32.54807,0,0,0,42.2085-.0074,1.41852,1.41852,0,0,1,1.8403,2.1592A35.38851,35.38851,0,0,1,49.8164,68.6421Z" fill="#1a3965"/><path d="M82.3833,44.2588a1.3782,1.3782,0,1,0,1.3784-1.3775A1.37644,1.37644,0,0,0,82.3833,44.2588Z" fill="#1a3965"/><path d="M82.3833,52.5229a1.37821,1.37821,0,1,0,1.3784-1.3721A1.381,1.381,0,0,0,82.3833,52.5229Z" fill="#1a3965"/><path d="M76.6109,48.1831a1.37893,1.37893,0,1,0,1.3794-1.3697A1.38463,1.38463,0,0,0,76.6109,48.1831Z" fill="#1a3965"/><path d="M16.4043,44.2588a1.37575,1.37575,0,1,1-1.373-1.3775A1.37626,1.37626,0,0,1,16.4043,44.2588Z" fill="#1a3965"/><path d="M16.4043,52.5298a1.37575,1.37575,0,1,1-1.373-1.379A1.3752,1.3752,0,0,1,16.4043,52.5298Z" fill="#1a3965"/><path d="M22.1802,48.1831a1.37823,1.37823,0,1,1-1.3784-1.3697A1.38231,1.38231,0,0,1,22.1802,48.1831Z" fill="#1a3965"/><path d="M56.6948,48.478c0,.8706-2.8188,1.5771-6.2978,1.5771-3.4785,0-6.3008-.7065-6.3008-1.5771,0-.8677,2.8223-1.5723,6.3008-1.5723C53.876,46.9057,56.6948,47.6103,56.6948,48.478Z" fill="#1a3965"/><path d="M45.0362,38.3437a1.5744,1.5744,0,0,1-1.5748-1.5742,6.158,6.158,0,1,0-12.3159,0,1.57545,1.57545,0,0,1-3.1509,0,9.30815,9.30815,0,0,1,18.6163,0A1.575,1.575,0,0,1,45.0362,38.3437Z" fill="#1a3965"/><path d="M71.3965,38.3437a1.57545,1.57545,0,0,1-1.5752-1.5742,6.158,6.158,0,1,0-12.3159,0,1.575,1.575,0,0,1-3.1499,0,9.30785,9.30785,0,1,1,18.6157,0A1.57534,1.57534,0,0,1,71.3965,38.3437Z" fill="#1a3965"/></svg>