<svg xmlns="http://www.w3.org/2000/svg" viewBox="0 0 181.96 100"><defs><style>.cls-1{fill:#fff;}.cls-2{fill:#1a3865;}</style></defs><g id="Layer_2" data-name="Layer 2"><g id="test"><g id="empathize-icon"><g id="Emoji_04_Icon_Group" data-name="Emoji 04 Icon Group"><circle id="bg" class="cls-1" cx="49.82" cy="50" r="47.03"/><circle id="bg-2" data-name="bg" class="cls-1" cx="132.14" cy="50" r="47.03"/><path id="Circle" class="cls-2" d="M50,100a50,50,0,1,1,50-50A50.06,50.06,0,0,1,50,100ZM50,3.15A46.85,46.85,0,1,0,96.85,50,46.91,46.91,0,0,0,50,3.15Z"/><path id="Line" class="cls-2" d="M54.45,79.11H45.2a1.26,1.26,0,1,1,0-2.52h9.25a1.26,1.26,0,0,1,0,2.52Z"/><path id="Mouth" class="cls-2" d="M49.82,68.64A35.41,35.41,0,0,1,26.88,60.2,1.42,1.42,0,0,1,28.71,58a32.53,32.53,0,0,0,42.21,0,1.43,1.43,0,0,1,2,.16,1.41,1.41,0,0,1-.16,2A35.34,35.34,0,0,1,49.82,68.64Z"/><g id="Eyes_Group" data-name="Eyes Group"><path id="Eye" class="cls-2" d="M45,38.34a1.57,1.57,0,0,1-1.58-1.57,6.16,6.16,0,1,0-12.31,0,1.58,1.58,0,0,1-3.16,0,9.31,9.31,0,0,1,18.62,0A1.57,1.57,0,0,1,45,38.34Z"/><path id="Eye-2" data-name="Eye" class="cls-2" d="M71.4,38.34a1.57,1.57,0,0,1-1.58-1.57,6.16,6.16,0,1,0-12.31,0,1.58,1.58,0,0,1-3.15,0,9.31,9.31,0,1,1,18.61,0A1.57,1.57,0,0,1,71.4,38.34Z"/></g></g><path id="Circle-2" data-name="Circle" class="cls-2" d="M132,100a50,50,0,1,1,50-50A50.06,50.06,0,0,1,132,100Zm0-96.85A46.85,46.85,0,1,0,178.81,50,46.91,46.91,0,0,0,132,3.15Z"/><path id="Line-2" data-name="Line" class="cls-2" d="M136.4,79.11h-9.25a1.26,1.26,0,1,1,0-2.52h9.25a1.26,1.26,0,1,1,0,2.52Z"/><path id="Mouth-2" data-name="Mouth" class="cls-2" d="M131.78,68.64a35.43,35.43,0,0,1-23-8.44A1.42,1.42,0,0,1,110.67,58a32.53,32.53,0,0,0,42.21,0,1.43,1.43,0,0,1,2,.16,1.41,1.41,0,0,1-.16,2A35.38,35.38,0,0,1,131.78,68.64Z"/><g id="Eyes_Group-2" data-name="Eyes Group"><path id="Eye-3" data-name="Eye" class="cls-2" d="M127,38.34a1.57,1.57,0,0,1-1.58-1.57,6.16,6.16,0,1,0-12.32,0,1.58,1.58,0,0,1-3.15,0,9.31,9.31,0,1,1,18.62,0A1.57,1.57,0,0,1,127,38.34Z"/><path id="Eye-4" data-name="Eye" class="cls-2" d="M153.36,38.34a1.57,1.57,0,0,1-1.58-1.57,6.16,6.16,0,1,0-12.32,0,1.58,1.58,0,0,1-3.15,0,9.31,9.31,0,0,1,18.62,0A1.57,1.57,0,0,1,153.36,38.34Z"/></g></g></g></g></svg>