<svg xmlns="http://www.w3.org/2000/svg" viewBox="0 0 135.89 135.89">
    <defs>
        <style>
        .cls-1 {
            fill: none;
            stroke: #fff;
            stroke-miterlimit: 10;
            stroke-width: 3.73px;
        }

        .cls-2 {
            fill: #fff;
        }
        </style>
    </defs>
    <g id="Layer_2" data-name="Layer 2">
        <g id="edits">
            <g id="insta">
                <circle class="cls-1" cx="67.95" cy="67.95" r="66.08" transform="translate(-13.79 118.46) rotate(-76.72)" />
                <path class="cls-2" d="M84.41,108.39H51.49a23,23,0,0,1-22.91-22.9V50.41A23,23,0,0,1,51.49,27.5H84.41a23,23,0,0,1,22.9,22.91V85.49A23,23,0,0,1,84.41,108.39Zm0-6a16.94,16.94,0,0,0,16.85-16.85V50.41A16.92,16.92,0,0,0,84.41,33.56H51.49A16.9,16.9,0,0,0,34.64,50.41V85.49a16.92,16.92,0,0,0,16.85,16.85Z" />
                <path class="cls-2" d="M89.75,67.63A21.68,21.68,0,1,1,68.07,46,21.68,21.68,0,0,1,89.75,67.63ZM68,53.46a14.2,14.2,0,1,0,14.2,14.19A14.19,14.19,0,0,0,68,53.46Z" />
                <path class="cls-2" d="M95.23,45.62a5.14,5.14,0,1,1-5.14-5.13A5.14,5.14,0,0,1,95.23,45.62Z" />
            </g>
        </g>
    </g>
</svg>