<svg xmlns="http://www.w3.org/2000/svg" width="135.89263" height="135.89263" viewBox="0 0 135.89263 135.89263"><circle cx="67.9463" cy="67.94629" r="66.08138" transform="translate(-15.45287 115.67445) rotate(-74.78189)" fill="none" stroke="#fff" stroke-miterlimit="10" stroke-width="3.72993"/><path d="M98.59531,44.99955,89.655,36.06765a5.776,5.776,0,0,0-8.19318,0l-9.62865,9.61191a5.79618,5.79618,0,0,0,0,8.20991l7.52161,7.53a34.48646,34.48646,0,0,1-17.931,17.95614l-7.5216-7.53005a5.76237,5.76237,0,0,0-8.19318,0L36.072,81.45754a5.79616,5.79616,0,0,0,0,8.2099l8.9319,8.932a10.05193,10.05193,0,0,0,7.06832,2.92966,9.41489,9.41489,0,0,0,1.61177-.13431c11.11448-1.83,22.14506-7.74825,31.0518-16.64655,8.89836-8.91509,14.80819-19.94568,16.655-31.0686a10.00675,10.00675,0,0,0-2.79543-8.68008Zm-3.15639,7.68109C93.802,62.57792,88.47975,72.45,80.46287,80.467,72.446,88.48386,62.58225,93.806,52.685,95.443A3.94818,3.94818,0,0,1,49.26,94.3349l-8.77239-8.77241,9.30128-9.30968L59.84561,86.32639l.07553.0756,1.81324-.67157A40.40292,40.40292,0,0,0,85.71794,61.73849l.67157-1.81324L76.24877,49.79288,85.55,40.48324l8.77242,8.77238A3.92954,3.92954,0,0,1,95.43892,52.68064Z" fill="#fff"/></svg>