<svg xmlns="http://www.w3.org/2000/svg" viewBox="0 0 100 100"><defs><style>.cls-1{fill:#fff;}.cls-2{fill:#1a3865;}</style></defs><g id="Layer_2" data-name="Layer 2"><g id="test"><g id="UI_Icon_Group" data-name="UI Icon Group"><circle id="bg" class="cls-1" cx="49.47" cy="50" r="47.03"/><path id="Circle_and_Browser" data-name="Circle and Browser" class="cls-2" d="M50,0a50,50,0,1,0,50,50A50.06,50.06,0,0,0,50,0ZM19.33,85.37V26.94H80.67V85.37a46.71,46.71,0,0,1-61.34,0Zm64.29-2.79V25.47A1.48,1.48,0,0,0,82.14,24H17.85a1.47,1.47,0,0,0-1.47,1.47V82.58a46.85,46.85,0,1,1,67.24,0Z"/><g id="Bullet_Points_Group" data-name="Bullet Points Group"><g id="Line_3" data-name="Line 3"><path id="Line" class="cls-2" d="M73.28,87.85H58.63a.64.64,0,0,1-.63-.63.63.63,0,0,1,.63-.63H73.28a.63.63,0,0,1,.63.63A.64.64,0,0,1,73.28,87.85Z"/><path id="Dot" class="cls-2" d="M56.49,87.22a1.57,1.57,0,1,1-1.57-1.57A1.56,1.56,0,0,1,56.49,87.22Z"/></g><g id="Line_2" data-name="Line 2"><path id="Line-2" data-name="Line" class="cls-2" d="M73.28,77H58.63a.63.63,0,1,1,0-1.26H73.28a.63.63,0,0,1,0,1.26Z"/><path id="Dot-2" data-name="Dot" class="cls-2" d="M56.49,76.32a1.57,1.57,0,1,1-1.57-1.56A1.56,1.56,0,0,1,56.49,76.32Z"/></g><g id="Line_1" data-name="Line 1"><path id="Line-3" data-name="Line" class="cls-2" d="M73.28,82.4H58.63a.63.63,0,1,1,0-1.26H73.28a.63.63,0,1,1,0,1.26Z"/><path class="cls-2" d="M56.49,81.77a1.57,1.57,0,1,1-1.57-1.56A1.56,1.56,0,0,1,56.49,81.77Z"/></g></g><path id="Title_2" data-name="Title 2" class="cls-2" d="M66.19,69.8H54.25a1,1,0,0,1,0-2H66.19a1,1,0,1,1,0,2Z"/><path id="Title_1" data-name="Title 1" class="cls-2" d="M72.77,65.69H54.25a1,1,0,0,1,0-2H72.77a1,1,0,1,1,0,2Z"/><path id="Line-4" data-name="Line" class="cls-2" d="M46.47,87.85H27a.63.63,0,0,1,0-1.26H46.47a.63.63,0,1,1,0,1.26Z"/><path id="Line-5" data-name="Line" class="cls-2" d="M46.47,82.4H27a.63.63,0,1,1,0-1.26H46.47a.63.63,0,0,1,0,1.26Z"/><path id="Line-6" data-name="Line" class="cls-2" d="M46.47,77H27a.63.63,0,1,1,0-1.26H46.47a.63.63,0,0,1,0,1.26Z"/><g id="Dotted_Circle" data-name="Dotted Circle"><path id="Circle_Line" data-name="Circle Line" class="cls-2" d="M40.88,69.5a.66.66,0,0,1-.23,0,.63.63,0,0,1-.35-.82,3.83,3.83,0,0,0,.28-1.29.63.63,0,0,1,1.26,0,5.29,5.29,0,0,1-.37,1.72A.63.63,0,0,1,40.88,69.5Z"/><path id="Circle_Line-2" data-name="Circle Line" class="cls-2" d="M40.61,65.6a.61.61,0,0,1-.54-.31,3.85,3.85,0,0,0-3.33-1.92,3.78,3.78,0,0,0-2.41.86.63.63,0,0,1-.8-1,5.11,5.11,0,0,1,7.63,1.4.64.64,0,0,1-.23.87A.72.72,0,0,1,40.61,65.6Z"/><path id="Circle_Line-3" data-name="Circle Line" class="cls-2" d="M32.28,67.83a.63.63,0,0,1-.63-.63A5.09,5.09,0,0,1,32,65.39a.63.63,0,0,1,1.18.45,3.69,3.69,0,0,0-.25,1.36A.63.63,0,0,1,32.28,67.83Z"/><path id="Circle_Line-4" data-name="Circle Line" class="cls-2" d="M36.74,72.3a5.12,5.12,0,0,1-4.44-2.6.63.63,0,0,1,1.1-.62,3.84,3.84,0,0,0,3.34,2,3.79,3.79,0,0,0,2.36-.81.63.63,0,0,1,.88.11.64.64,0,0,1-.11.89A5,5,0,0,1,36.74,72.3Z"/></g><path id="Horizontal_Line_2" data-name="Horizontal Line 2" class="cls-2" d="M78.09,58.87H21.9a.79.79,0,0,1,0-1.57H78.09a.79.79,0,1,1,0,1.57Z"/><path id="Cross_Image" data-name="Cross Image" class="cls-2" d="M63.53,37.66a.67.67,0,0,0-.94-.21L50.36,45.23l-8.42-5.48a.68.68,0,1,0-.75,1.14L49.1,46l-12.43,7.9A.69.69,0,0,0,37,55.2a.66.66,0,0,0,.37-.11l12.94-8.24,10,6.49a.62.62,0,0,0,.37.11.68.68,0,0,0,.37-1.25l-9.46-6.15,11.71-7.46A.67.67,0,0,0,63.53,37.66Z"/><path id="Horizontal_Line_1" data-name="Horizontal Line 1" class="cls-2" d="M78.09,35.14H21.9a.79.79,0,0,1,0-1.57H78.09a.79.79,0,1,1,0,1.57Z"/><path id="Dot-3" data-name="Dot" class="cls-2" d="M26.18,30.77a1.34,1.34,0,1,1-1.34-1.33A1.34,1.34,0,0,1,26.18,30.77Z"/><path id="Dot-4" data-name="Dot" class="cls-2" d="M30.06,30.77a1.34,1.34,0,1,1-1.34-1.33A1.34,1.34,0,0,1,30.06,30.77Z"/><path id="Dot-5" data-name="Dot" class="cls-2" d="M33.94,30.77a1.34,1.34,0,1,1-1.34-1.33A1.34,1.34,0,0,1,33.94,30.77Z"/></g></g></g></svg>