<?xml version="1.0" encoding="utf-8"?>
<!-- Generator: Adobe Illustrator 24.1.2, SVG Export Plug-In . SVG Version: 6.00 Build 0)  -->
<svg version="1.1" xmlns="http://www.w3.org/2000/svg" xmlns:xlink="http://www.w3.org/1999/xlink" x="0px" y="0px"
	 viewBox="0 0 571.3 377.66" style="enable-background:new 0 0 571.3 377.66;" xml:space="preserve">
<style type="text/css">
	.st0{opacity:0.25;}
	.st1{fill:#0A3859;}
	.st2{fill:#FFFFFF;}
</style>
<g id="black-on-white-no-shadow">
</g>
<g id="sdd-logo_x5F_blue">
	<path class="st1" d="M146.54,41.97c-25.95,0-49.29,5.89-70,17.65C55.83,71.39,39.66,88,28.03,109.45
		c-11.63,21.45-17.52,45.49-17.65,72.12v13.52c0,26.9,5.68,51,17.05,72.32c11.37,21.32,27.37,37.99,48.01,50.03
		c20.65,12.04,43.67,18.12,69.09,18.26h96.63V41.97H146.54z M170.34,281.22h-24.61c-20.3,0-35.91-7.23-46.8-21.69
		c-10.89-14.46-16.34-35.94-16.34-64.45v-12.71c0-28.37,5.45-49.76,16.34-64.15c10.89-14.39,26.76-21.58,47.61-21.58h23.8V281.22z"
		/>
	<path class="st1" d="M544.26,109.45C532.63,88,516.45,71.39,495.74,59.62c-20.71-11.77-44.04-17.65-70-17.65h-94.61v293.71h96.63
		c25.42-0.13,48.45-6.22,69.09-18.26c20.64-12.03,36.64-28.71,48.01-50.03c11.36-21.31,17.05-45.42,17.05-72.32v-13.52
		C561.78,154.94,555.89,130.9,544.26,109.45z M489.69,195.08c0,28.51-5.45,50-16.34,64.45c-10.89,14.46-26.5,21.69-46.8,21.69
		h-24.61V96.64h23.8c20.85,0,36.72,7.2,47.61,21.58c10.89,14.39,16.34,35.77,16.34,64.15V195.08z"/>
	<path class="st1" d="M330.43,257.62c0-10.35-3.67-18.42-10.99-24.21c-7.33-5.78-20.21-11.77-38.63-17.95
		c-18.43-6.18-33.49-12.17-45.19-17.95c-38.06-18.69-57.09-44.38-57.09-77.06c0-16.27,6.06-29.72,14.22-43.07
		c12.78-20.91,40.36-35.4,40.36-35.4H347.9c0,0,22.98,12.31,39.41,39.44c8.67,14.31,14.63,29.82,14.63,47.71h-70.8
		c0-11.97-4.17-21.25-11.5-27.84c-7.33-6.59-17.25-9.88-29.75-9.88c-12.64,0-22.63,2.79-29.96,8.37
		c-7.33,5.58-10.99,12.68-10.99,21.28c0,7.53,4.03,14.36,12.1,20.47c8.07,6.12,22.26,12.44,42.56,18.96
		c20.31,6.52,36.98,13.55,50.03,21.08c31.74,18.29,47.61,43.51,47.61,75.65c0,25.69-9.68,45.86-29.05,60.52
		c-11.25,8.52-41.05,17.95-41.05,17.95s-24.49,0-38.63,0c-18.48,0-51.36,0-51.36,0s-8.52-5.17-13.53-7.8
		c-18.68-9.82-33.59-21.21-43.34-36.07c-9.75-14.86-13.94-31.97-13.94-51.34h70.81c0,15.73,3.58,27.33,11.72,34.8
		c8.14,7.46,21.35,11.2,39.64,11.2c11.7,0,20.94-2.52,27.74-7.56C327.03,273.86,330.43,266.77,330.43,257.62z"/>
</g>
<g id="white">
</g>
</svg>
